<svg width="42" height="45" viewBox="0 0 42 45" fill="none" xmlns="http://www.w3.org/2000/svg">
<g clip-path="url(#clip0_1_223)">
<path fill-rule="evenodd" clip-rule="evenodd" d="M21 36C25.7739 36 30.3523 34.1035 33.7279 30.7279C37.1036 27.3522 39 22.7739 39 18C39 13.2261 37.1036 8.6477 33.7279 5.27205C30.3523 1.89639 25.7739 -3.05176e-05 21 -3.05176e-05C16.2261 -3.05176e-05 11.6477 1.89639 8.27208 5.27205C4.89642 8.6477 3 13.2261 3 18C3 22.7739 4.89642 27.3522 8.27208 30.7279C11.6477 34.1035 16.2261 36 21 36ZM23.25 8.99997C23.25 8.40323 23.0129 7.83094 22.591 7.40898C22.169 6.98702 21.5967 6.74997 21 6.74997C20.4033 6.74997 19.831 6.98702 19.409 7.40898C18.9871 7.83094 18.75 8.40323 18.75 8.99997V18C18.7501 18.5967 18.9873 19.1689 19.4093 19.5907L25.7723 25.956C25.9813 26.165 26.2295 26.3308 26.5026 26.444C26.7757 26.5571 27.0685 26.6153 27.3641 26.6153C27.6598 26.6153 27.9525 26.5571 28.2256 26.444C28.4988 26.3308 28.747 26.165 28.956 25.956C29.165 25.7469 29.3309 25.4987 29.444 25.2256C29.5571 24.9525 29.6154 24.6597 29.6154 24.3641C29.6154 24.0685 29.5571 23.7757 29.444 23.5026C29.3309 23.2294 29.165 22.9813 28.956 22.7722L23.25 17.0685V8.99997Z" fill="url(#paint0_radial_1_223)"/>
</g>
<defs>
<radialGradient id="paint0_radial_1_223" cx="0" cy="0" r="1" gradientUnits="userSpaceOnUse" gradientTransform="translate(21 -3.05176e-05) rotate(90) scale(36)">
<stop stop-color="#FFEBC0"/>
<stop offset="1" stop-color="#F7D692"/>
</radialGradient>
<clipPath id="clip0_1_223">
<rect width="42" height="44.3906" fill="white" transform="translate(0 0.107147)"/>
</clipPath>
</defs>
</svg>
